<?xml version="1.0" encoding="UTF-8" standalone="no"?>
<svg
   width="1042.0601"
   height="260"
   viewBox="0 0 1042.0601 260"
   fill="none"
   version="1.1"
   id="svg76"
   sodipodi:docname="banner.svg"
   inkscape:version="1.1.1 (c3084ef, 2021-09-22)"
   xmlns:inkscape="http://www.inkscape.org/namespaces/inkscape"
   xmlns:sodipodi="http://sodipodi.sourceforge.net/DTD/sodipodi-0.dtd"
   xmlns="http://www.w3.org/2000/svg"
   xmlns:svg="http://www.w3.org/2000/svg">
  <sodipodi:namedview
     id="namedview78"
     pagecolor="#ffffff"
     bordercolor="#666666"
     borderopacity="1.0"
     inkscape:pageshadow="2"
     inkscape:pageopacity="0.0"
     inkscape:pagecheckerboard="0"
     showgrid="false"
     fit-margin-top="2"
     fit-margin-left="2"
     fit-margin-bottom="2"
     fit-margin-right="2"
     inkscape:zoom="0.65106875"
     inkscape:cx="840.92502"
     inkscape:cy="148.21783"
     inkscape:window-width="1296"
     inkscape:window-height="969"
     inkscape:window-x="0"
     inkscape:window-y="25"
     inkscape:window-maximized="0"
     inkscape:current-layer="svg76" />
  <rect
     x="2"
     y="2"
     width="256"
     height="256"
     rx="32"
     fill="url(#paint0_linear_16_5)"
     id="rect61"
     style="fill:url(#paint0_linear_16_5)" />
  <path
     d="m 102.824,147.736 c -0.96,0 -1.44,-0.48 -1.44,-1.44 0,-0.96 0.48,-1.44 1.44,-1.44 0.96,0 1.44,0.48 1.44,1.44 0,0.96 -0.48,1.44 -1.44,1.44 z m 0,5.76 c -0.96,0 -1.44,-0.48 -1.44,-1.44 0,-0.96 0.48,-1.44 1.44,-1.44 0.96,0 1.44,0.48 1.44,1.44 0,0.96 -0.48,1.44 -1.44,1.44 z m 0,5.76 c -0.96,0 -1.44,-0.48 -1.44,-1.44 0,-0.96 0.48,-1.44 1.44,-1.44 0.96,0 1.44,0.48 1.44,1.44 0,0.96 -0.48,1.44 -1.44,1.44 z m 0,5.472 c -0.96,0 -1.44,-0.48 -1.44,-1.44 0,-0.96 0.48,-1.44 1.44,-1.44 0.96,0 1.44,0.48 1.44,1.44 0,0.96 -0.48,1.44 -1.44,1.44 z m 0,6.048 c -0.96,0 -1.44,-0.48 -1.44,-1.44 0,-0.96 0.48,-1.44 1.44,-1.44 0.96,0 1.44,0.48 1.44,1.44 0,0.96 -0.48,1.44 -1.44,1.44 z m 0,5.184 c -0.96,0 -1.44,-0.48 -1.44,-1.44 0,-0.96 0.48,-1.44 1.44,-1.44 0.96,0 1.44,0.48 1.44,1.44 0,0.96 -0.48,1.44 -1.44,1.44 z m 0,5.04 c -0.96,0 -1.44,-0.48 -1.44,-1.44 0,-0.96 0.48,-1.44 1.44,-1.44 0.96,0 1.44,0.48 1.44,1.44 0,0.96 -0.48,1.44 -1.44,1.44 z m 0,-70.56 c -0.96,0 -1.44,-0.48 -1.44,-1.44 0,-0.96 0.48,-1.44 1.44,-1.44 0.96,0 1.44,0.48 1.44,1.44 0,0.96 -0.48,1.44 -1.44,1.44 z m 0,14.832 c -0.96,0 -1.44,-0.48 -1.44,-1.44 0,-0.96 0.48,-1.44 1.44,-1.44 0.96,0 1.44,0.48 1.44,1.44 0,0.96 -0.48,1.44 -1.44,1.44 z m 0,5.328 c -0.96,0 -1.44,-0.48 -1.44,-1.44 0,-0.96 0.48,-1.44 1.44,-1.44 0.96,0 1.44,0.48 1.44,1.44 0,0.96 -0.48,1.44 -1.44,1.44 z m 0,5.472 c -0.96,0 -1.44,-0.48 -1.44,-1.44 0,-0.96 0.48,-1.44 1.44,-1.44 0.96,0 1.44,0.48 1.44,1.44 0,0.96 -0.48,1.44 -1.44,1.44 z m 0,5.76 c -0.96,0 -1.44,-0.48 -1.44,-1.44 0,-0.96 0.48,-1.44 1.44,-1.44 0.96,0 1.44,0.48 1.44,1.44 0,0.96 -0.48,1.44 -1.44,1.44 z m 0,-21.744 c -0.96,0 -1.44,-0.48 -1.44,-1.44 0,-0.96 0.48,-1.44 1.44,-1.44 0.96,0 1.44,0.48 1.44,1.44 0,0.96 -0.48,1.44 -1.44,1.44 z m 0,-4.752 c -0.96,0 -1.44,-0.48 -1.44,-1.44 0,-0.96 0.48,-1.44 1.44,-1.44 0.96,0 1.44,0.48 1.44,1.44 0,0.96 -0.48,1.44 -1.44,1.44 z m 54.864,32.4 c -0.96,0 -1.44,-0.48 -1.44,-1.44 0,-0.96 0.48,-1.44 1.44,-1.44 0.96,0 1.44,0.48 1.44,1.44 0,0.96 -0.48,1.44 -1.44,1.44 z m 0,5.76 c -0.96,0 -1.44,-0.48 -1.44,-1.44 0,-0.96 0.48,-1.44 1.44,-1.44 0.96,0 1.44,0.48 1.44,1.44 0,0.96 -0.48,1.44 -1.44,1.44 z m 0,5.76 c -0.96,0 -1.44,-0.48 -1.44,-1.44 0,-0.96 0.48,-1.44 1.44,-1.44 0.96,0 1.44,0.48 1.44,1.44 0,0.96 -0.48,1.44 -1.44,1.44 z m 0,5.472 c -0.96,0 -1.44,-0.48 -1.44,-1.44 0,-0.96 0.48,-1.44 1.44,-1.44 0.96,0 1.44,0.48 1.44,1.44 0,0.96 -0.48,1.44 -1.44,1.44 z m 0,6.048 c -0.96,0 -1.44,-0.48 -1.44,-1.44 0,-0.96 0.48,-1.44 1.44,-1.44 0.96,0 1.44,0.48 1.44,1.44 0,0.96 -0.48,1.44 -1.44,1.44 z m 0,5.184 c -0.96,0 -1.44,-0.48 -1.44,-1.44 0,-0.96 0.48,-1.44 1.44,-1.44 0.96,0 1.44,0.48 1.44,1.44 0,0.96 -0.48,1.44 -1.44,1.44 z m 0,5.04 c -0.96,0 -1.44,-0.48 -1.44,-1.44 0,-0.96 0.48,-1.44 1.44,-1.44 0.96,0 1.44,0.48 1.44,1.44 0,0.96 -0.48,1.44 -1.44,1.44 z m -26.064,-71.856 c -0.96,0 -1.44,-0.48 -1.44,-1.44 0,-0.96 0.48,-1.44 1.44,-1.44 0.96,0 1.44,0.48 1.44,1.44 0,0.96 -0.48,1.44 -1.44,1.44 z m 6.48,-0.576 c -0.96,0 -1.44,-0.48 -1.44,-1.44 0,-0.96 0.48,-1.44 1.44,-1.44 0.96,0 1.44,0.48 1.44,1.44 0,0.96 -0.48,1.44 -1.44,1.44 z m 6.192,1.296 c -0.96,0 -1.44,-0.48 -1.44,-1.44 0,-0.96 0.48,-1.44 1.44,-1.44 0.96,0 1.44,0.48 1.44,1.44 0,0.96 -0.48,1.44 -1.44,1.44 z m 5.616,3.312 c -0.96,0 -1.44,-0.48 -1.44,-1.44 0,-0.96 0.48,-1.44 1.44,-1.44 0.96,0 1.44,0.48 1.44,1.44 0,0.96 -0.48,1.44 -1.44,1.44 z m 3.168,4.032 c -0.96,0 -1.44,-0.48 -1.44,-1.44 0,-0.96 0.48,-1.44 1.44,-1.44 0.96,0 1.44,0.48 1.44,1.44 0,0.96 -0.48,1.44 -1.44,1.44 z m 3.168,9.936 c -0.96,0 -1.44,-0.48 -1.44,-1.44 0,-0.96 0.48,-1.44 1.44,-1.44 0.96,0 1.44,0.48 1.44,1.44 0,0.96 -0.48,1.44 -1.44,1.44 z m 0.72,5.328 c -0.96,0 -1.44,-0.48 -1.44,-1.44 0,-0.96 0.48,-1.44 1.44,-1.44 0.96,0 1.44,0.48 1.44,1.44 0,0.96 -0.48,1.44 -1.44,1.44 z m -1.872,-10.368 c -0.96,0 -1.44,-0.48 -1.44,-1.44 0,-0.96 0.48,-1.44 1.44,-1.44 0.96,0 1.44,0.48 1.44,1.44 0,0.96 -0.48,1.44 -1.44,1.44 z m 2.592,15.84 c -0.96,0 -1.44,-0.48 -1.44,-1.44 0,-0.96 0.48,-1.44 1.44,-1.44 0.96,0 1.44,0.48 1.44,1.44 0,0.96 -0.48,1.44 -1.44,1.44 z m -32.256,-26.64 c -0.96,0 -1.44,-0.48 -1.44,-1.44 0,-0.96 0.48,-1.44 1.44,-1.44 0.96,0 1.44,0.48 1.44,1.44 0,0.96 -0.48,1.44 -1.44,1.44 z m 32.256,31.104 c -0.96,0 -1.44,-0.48 -1.44,-1.44 0,-0.96 0.48,-1.44 1.44,-1.44 0.96,0 1.44,0.48 1.44,1.44 0,0.96 -0.48,1.44 -1.44,1.44 z m -37.872,-28.512 c -0.96,0 -1.44,-0.48 -1.44,-1.44 0,-0.96 0.48,-1.44 1.44,-1.44 0.96,0 1.44,0.48 1.44,1.44 0,0.96 -0.48,1.44 -1.44,1.44 z m -4.896,3.744 c -0.96,0 -1.44,-0.48 -1.44,-1.44 0,-0.96 0.48,-1.44 1.44,-1.44 0.96,0 1.44,0.48 1.44,1.44 0,0.96 -0.48,1.44 -1.44,1.44 z m -4.032,4.608 c -0.96,0 -1.44,-0.48 -1.44,-1.44 0,-0.96 0.48,-1.44 1.44,-1.44 0.96,0 1.44,0.48 1.44,1.44 0,0.96 -0.48,1.44 -1.44,1.44 z m -3.6,5.04 c -0.96,0 -1.44,-0.48 -1.44,-1.44 0,-0.96 0.48,-1.44 1.44,-1.44 0.96,0 1.44,0.48 1.44,1.44 0,0.96 -0.48,1.44 -1.44,1.44 z m -4.464,-27.504 c -0.96,0 -1.44,-0.48 -1.44,-1.44 0,-0.96 0.48,-1.44 1.44,-1.44 0.96,0 1.44,0.48 1.44,1.44 0,0.96 -0.48,1.44 -1.44,1.44 z m 0,5.04 c -0.96,0 -1.44,-0.48 -1.44,-1.44 0,-0.96 0.48,-1.44 1.44,-1.44 0.96,0 1.44,0.48 1.44,1.44 0,0.96 -0.48,1.44 -1.44,1.44 z m 0,-26.064 c -0.96,0 -1.44,-0.48 -1.44,-1.44 0,-0.96 0.48,-1.44 1.44,-1.44 0.96,0 1.44,0.48 1.44,1.44 0,0.96 -0.48,1.44 -1.44,1.44 z m 0,5.328 c -0.96,0 -1.44,-0.48 -1.44,-1.44 0,-0.96 0.48,-1.44 1.44,-1.44 0.96,0 1.44,0.48 1.44,1.44 0,0.96 -0.48,1.44 -1.44,1.44 z m 0,5.04 c -0.96,0 -1.44,-0.48 -1.44,-1.44 0,-0.96 0.48,-1.44 1.44,-1.44 0.96,0 1.44,0.48 1.44,1.44 0,0.96 -0.48,1.44 -1.44,1.44 z m 0,5.616 c -0.96,0 -1.44,-0.48 -1.44,-1.44 0,-0.96 0.48,-1.44 1.44,-1.44 0.96,0 1.44,0.48 1.44,1.44 0,0.96 -0.48,1.44 -1.44,1.44 z"
     fill="#000000"
     id="path63" />
  <path
     d="m 374.432,181 h -7.2 v -41.76 c 0,-18.528 -6.192,-27.792 -18.576,-27.792 -4.032,0 -7.968,1.008 -11.808,3.024 -3.84,2.016 -7.248,4.8 -10.224,8.352 -2.88,3.456 -4.944,7.392 -6.192,11.808 V 181 h -7.2 V 75.88 h 7.2 v 48.096 c 3.072,-5.856 7.344,-10.512 12.816,-13.968 5.472,-3.456 11.28,-5.184 17.424,-5.184 8.352,0 14.4,2.976 18.144,8.928 3.744,5.856 5.616,13.92 5.616,24.192 z m 15.577,-21.6 c 0,-4.416 1.296,-8.304 3.888,-11.664 2.688,-3.36 6.384,-5.952 11.088,-7.776 4.8,-1.92 10.272,-2.88 16.416,-2.88 3.84,0 7.824,0.336 11.952,1.008 4.224,0.672 7.92,1.584 11.088,2.736 v -7.056 c 0,-6.912 -2.016,-12.432 -6.048,-16.56 -4.032,-4.128 -9.504,-6.192 -16.416,-6.192 -3.744,0 -7.632,0.768 -11.664,2.304 -4.032,1.536 -8.16,3.744 -12.384,6.624 l -3.024,-5.184 c 9.792,-6.624 19.056,-9.936 27.792,-9.936 8.832,0 15.84,2.64 21.024,7.92 5.28,5.28 7.92,12.48 7.92,21.6 v 37.152 c 0,2.304 1.056,3.504 3.168,3.6 V 181 c -1.824,0.192 -3.024,0.24 -3.6,0.144 -1.824,-0.192 -3.264,-0.96 -4.32,-2.304 -0.96,-1.344 -1.488,-2.736 -1.584,-4.176 v -5.904 c -3.456,4.32 -7.92,7.68 -13.392,10.08 -5.376,2.4 -11.04,3.6 -16.992,3.6 -4.704,0 -8.976,-1.008 -12.816,-3.024 -3.744,-2.112 -6.72,-4.896 -8.928,-8.352 -2.112,-3.456 -3.168,-7.344 -3.168,-11.664 z m 51.552,6.192 c 1.92,-2.4 2.88,-4.656 2.88,-6.768 V 146.44 c -6.912,-2.688 -14.352,-4.032 -22.32,-4.032 -7.584,0 -13.68,1.536 -18.288,4.608 -4.608,2.976 -6.912,6.96 -6.912,11.952 0,3.168 0.816,6.096 2.448,8.784 1.632,2.688 3.888,4.848 6.768,6.48 2.976,1.632 6.384,2.448 10.224,2.448 5.376,0 10.32,-1.008 14.832,-3.024 4.512,-2.112 7.968,-4.8 10.368,-8.064 z M 508.969,112.6 c -6.72,0.192 -12.624,2.208 -17.712,6.048 -4.992,3.744 -8.496,8.928 -10.512,15.552 V 181 h -7.2 v -74.88 h 6.912 v 18.432 c 2.592,-5.184 6.048,-9.456 10.368,-12.816 4.32,-3.36 8.88,-5.28 13.68,-5.76 0.96,0 1.776,0 2.448,0 0.768,-0.096 1.44,-0.144 2.016,-0.144 z M 576.767,181 547.535,140.968 529.823,157.24 V 181 h -7.2 V 75.88 h 7.2 v 73.296 l 45.648,-42.912 h 8.208 L 552.431,136.648 584.687,181 Z m 82.29,0 h -7.2 v -41.76 c 0,-9.6 -1.392,-16.608 -4.176,-21.024 -2.784,-4.512 -7.104,-6.768 -12.96,-6.768 -4.224,0 -8.352,1.008 -12.384,3.024 -4.032,2.016 -7.584,4.8 -10.656,8.352 -3.072,3.456 -5.28,7.392 -6.624,11.808 V 181 h -7.2 v -74.88 h 6.768 v 17.856 c 2.976,-5.664 7.392,-10.272 13.248,-13.824 5.952,-3.552 12.24,-5.328 18.864,-5.328 8.16,0 13.92,2.88 17.28,8.64 3.36,5.76 5.04,13.92 5.04,24.48 z m 53.161,1.44 c -7.008,0 -13.296,-1.776 -18.864,-5.328 -5.472,-3.552 -9.792,-8.256 -12.96,-14.112 -3.168,-5.856 -4.752,-12.288 -4.752,-19.296 0,-5.28 0.912,-10.224 2.736,-14.832 1.824,-4.704 4.416,-8.832 7.776,-12.384 3.36,-3.648 7.248,-6.48 11.664,-8.496 4.416,-2.112 9.216,-3.168 14.4,-3.168 5.184,0 9.984,1.056 14.4,3.168 4.416,2.016 8.256,4.848 11.52,8.496 3.36,3.552 5.952,7.68 7.776,12.384 1.92,4.608 2.88,9.552 2.88,14.832 0,7.008 -1.632,13.44 -4.896,19.296 -3.168,5.856 -7.536,10.56 -13.104,14.112 -5.472,3.552 -11.664,5.328 -18.576,5.328 z m -29.376,-38.448 c 0,5.856 1.296,11.232 3.888,16.128 2.688,4.8 6.24,8.64 10.656,11.52 4.416,2.88 9.312,4.32 14.688,4.32 5.376,0 10.272,-1.44 14.688,-4.32 4.512,-2.976 8.064,-6.912 10.656,-11.808 2.688,-4.896 4.032,-10.32 4.032,-16.272 0,-5.856 -1.344,-11.232 -4.032,-16.128 -2.592,-4.896 -6.144,-8.784 -10.656,-11.664 -4.416,-2.976 -9.264,-4.464 -14.544,-4.464 -5.376,0 -10.272,1.488 -14.688,4.464 -4.416,2.976 -7.968,6.96 -10.656,11.952 -2.688,4.896 -4.032,10.32 -4.032,16.272 z M 766.621,75.88 h 7.344 v 90.288 c 0,3.456 0.72,5.856 2.16,7.2 1.44,1.248 3.312,1.872 5.616,1.872 1.536,0 3.12,-0.144 4.752,-0.432 1.632,-0.288 3.072,-0.672 4.319,-1.152 l 1.441,5.904 c -1.632,0.576 -3.648,1.104 -6.048,1.584 -2.4,0.48 -4.464,0.72 -6.192,0.72 -4.032,0 -7.296,-1.2 -9.792,-3.6 -2.4,-2.496 -3.6,-5.808 -3.6,-9.936 z m 68.081,106.56 c -7.008,0 -13.296,-1.776 -18.864,-5.328 -5.472,-3.552 -9.792,-8.256 -12.96,-14.112 -3.168,-5.856 -4.752,-12.288 -4.752,-19.296 0,-5.28 0.912,-10.224 2.736,-14.832 1.824,-4.704 4.416,-8.832 7.776,-12.384 3.36,-3.648 7.248,-6.48 11.664,-8.496 4.416,-2.112 9.216,-3.168 14.4,-3.168 5.184,0 9.984,1.056 14.4,3.168 4.416,2.016 8.256,4.848 11.52,8.496 3.36,3.552 5.952,7.68 7.776,12.384 1.92,4.608 2.88,9.552 2.88,14.832 0,7.008 -1.632,13.44 -4.896,19.296 -3.168,5.856 -7.536,10.56 -13.104,14.112 -5.472,3.552 -11.664,5.328 -18.576,5.328 z m -29.376,-38.448 c 0,5.856 1.296,11.232 3.888,16.128 2.688,4.8 6.24,8.64 10.656,11.52 4.416,2.88 9.312,4.32 14.688,4.32 5.376,0 10.272,-1.44 14.688,-4.32 4.512,-2.976 8.064,-6.912 10.656,-11.808 2.688,-4.896 4.032,-10.32 4.032,-16.272 0,-5.856 -1.344,-11.232 -4.032,-16.128 -2.592,-4.896 -6.144,-8.784 -10.656,-11.664 -4.416,-2.976 -9.264,-4.464 -14.544,-4.464 -5.376,0 -10.272,1.488 -14.688,4.464 -4.416,2.976 -7.968,6.96 -10.656,11.952 -2.688,4.896 -4.032,10.32 -4.032,16.272 z m 113.443,38.16 c -5.088,0 -9.792,-1.056 -14.112,-3.168 -4.32,-2.112 -8.064,-4.992 -11.232,-8.64 -3.168,-3.648 -5.664,-7.776 -7.488,-12.384 -1.728,-4.608 -2.592,-9.36 -2.592,-14.256 0,-6.816 1.488,-13.152 4.464,-19.008 2.976,-5.952 7.056,-10.752 12.24,-14.4 5.28,-3.648 11.328,-5.472 18.144,-5.472 6.528,0 12.192,1.728 16.992,5.184 4.896,3.36 9.024,7.488 12.384,12.384 V 106.12 h 6.624 v 76.32 c 0,6.816 -1.632,12.48 -4.896,16.992 -3.264,4.512 -7.584,7.92 -12.96,10.224 -5.376,2.304 -11.184,3.456 -17.424,3.456 -8.736,0 -15.696,-1.584 -20.88,-4.752 -5.088,-3.168 -9.216,-7.344 -12.384,-12.528 l 4.896,-3.312 c 2.976,5.088 7.008,8.784 12.096,11.088 5.088,2.4 10.512,3.6 16.272,3.6 5.088,0 9.744,-0.96 13.968,-2.88 4.32,-1.824 7.728,-4.56 10.224,-8.208 2.592,-3.648 3.888,-8.208 3.888,-13.68 v -16.416 c -2.976,4.896 -7.056,8.832 -12.24,11.808 -5.088,2.88 -10.416,4.32 -15.984,4.32 z m 1.728,-6.192 c 4.224,0 8.256,-1.008 12.096,-3.024 3.936,-2.016 7.2,-4.56 9.792,-7.632 2.592,-3.072 4.128,-6.24 4.608,-9.504 v -24.624 c -1.44,-3.84 -3.6,-7.248 -6.48,-10.224 -2.88,-2.976 -6.192,-5.328 -9.936,-7.056 -3.648,-1.728 -7.392,-2.592 -11.232,-2.592 -6.048,0 -11.232,1.632 -15.552,4.896 -4.224,3.264 -7.488,7.392 -9.792,12.384 -2.208,4.992 -3.312,10.08 -3.312,15.264 0,5.664 1.296,10.944 3.888,15.84 2.688,4.896 6.288,8.832 10.8,11.808 4.608,2.976 9.648,4.464 15.12,4.464 z m 61.243,30.384 c 1.54,0.096 2.88,0.096 4.03,0 1.25,0 2.16,-0.192 2.74,-0.576 0.86,-0.192 1.73,-0.96 2.59,-2.304 0.86,-1.248 2.06,-3.6 3.6,-7.056 1.63,-3.456 3.84,-8.592 6.62,-15.408 l -33.403,-74.88 h 7.633 l 29.66,67.248 27.51,-67.248 h 7.34 l -41.04,98.496 c -0.86,2.208 -2.21,4.08 -4.03,5.616 -1.83,1.536 -4.23,2.4 -7.2,2.592 -0.87,0.096 -1.83,0.144 -2.88,0.144 -0.96,0.096 -2.02,0.096 -3.17,0 z"
     fill="#009d35"
     id="path65" />
  <defs
     id="defs74">
    <linearGradient
       id="paint0_linear_16_5"
       x1="283"
       y1="280"
       x2="27"
       y2="24"
       gradientUnits="userSpaceOnUse"
       gradientTransform="translate(-25,-22)">
      <stop
         stop-color="#00651C"
         id="stop67" />
      <stop
         offset="0.557292"
         stop-color="#00BB34"
         stop-opacity="0.882969"
         id="stop69" />
      <stop
         offset="1"
         stop-color="#00FF47"
         stop-opacity="0.79"
         id="stop71" />
    </linearGradient>
  </defs>
</svg>
